<svg xmlns="http://www.w3.org/2000/svg" width="581.487" height="221.408" viewBox="0 0 153.85174 58.580809"><g stroke="#294172"><g fill="#3c6eb4" stroke="none" stroke-width=".265" style="line-height:22.55517006px" font-weight="400" font-size="37.592" font-family="sans-serif" letter-spacing="0" word-spacing="0"><path fill="#294172" d="M76.378 40.595q-4.173 0-7.18-2.82-3.008-2.856-3.008-7.443 0-4.586 3.12-7.443 3.158-2.897 7.67-2.897 4.51 0 7.63 3.12l-2.48 3.045Q79.535 23.9 76.904 23.9q-2.632 0-4.586 1.768Q70.4 27.4 70.4 30.18q0 2.745 1.918 4.662 1.917 1.918 4.7 1.918 2.818 0 5.3-2.557l2.48 2.707q-3.646 3.684-8.42 3.684zm23.275-16.353q-3.12 0-4.7 2.03-1.577 2.03-1.577 5.45v8.572h-4.21v-20h4.21v4.024q1.015-1.88 2.744-3.083 1.767-1.203 3.72-1.24l.04 4.247h-.227zm8.627 16.052h-4.21v-20h4.21zm-3.947-23.983q-.79-.79-.79-1.88 0-1.09.79-1.88.79-.79 1.88-.79 1.09 0 1.88.79.79.79.79 1.88 0 1.09-.79 1.88-.79.79-1.88.79-1.09 0-1.88-.79z"/><path d="M112.16 31.047V27.1h12.48v3.947z" style="-inkscape-font-specification:Montserrat" font-family="Montserrat"/><path fill="#294172" d="M133.486 35.03q1.804 1.806 4.548 1.806 2.745 0 4.51-1.805 1.806-1.84 1.806-4.733 0-2.895-1.805-4.7-1.766-1.84-4.51-1.84-2.745 0-4.55 1.84-1.766 1.805-1.766 4.7 0 2.894 1.764 4.736zm12.067 2.595q-3.008 2.97-7.52 2.97-4.51 0-7.517-2.97-3.007-3.007-3.007-7.33t3.004-7.293q3.007-3.007 7.518-3.007 4.51 0 7.52 3.007 3.006 2.97 3.006 7.293t-3.008 7.33z"/></g><path fill="#fff" stroke="#3c6eb4" stroke-width="1.058" d="M29.94 53.818l-19.3-9.233-4.82-20.86 13.287-16.78 21.39-.066 13.384 16.7-4.696 20.89z" stroke-linecap="round" stroke-linejoin="round"/><path fill="none" stroke="#3c6eb4" stroke-width="1.058" d="M27.926 14.4l-2.502 5.592zm12.636 4.357l-5.986 1.306zM17.05 21.91l2.882 5.406zm22.867 5.36l4.686 3.946zm-23.066 7.5l6.035 1.08zm20.688 1.042l-.204 6.124zm-7.71 3.428l-4.765 3.854z"/><path fill="#294172" stroke="none" d="M21.534 11.176l-.944.48 3.837 7.552-4.843-1.034-.22 1.035 5.68 1.21 1.694 3.333.36-.455.594-.003zm16.882.05l-3.8 7.57-2.043-4.51-.965.437 2.397 5.29-1.642 3.27h.216l.593.743L39.36 11.7zM42.34 21.66l-2.73 5.125-3.656.705.055.068-.238 1.044 13.69-2.64-.2-1.04-8.32 1.605 2.33-4.37zm-31.746 3.262l-.2 1.04 8.362 1.613-3.842 3.236.682.81 4.497-3.785 3.826.738-.228-.975.1-.126zm24.242 7.847l-.03.133-.918.444 10.58 9.16.693-.803-6.403-5.544 4.874-.87-.185-1.043-5.718 1.024zm-9.923.092l-10.215 8.843.693.8 6.44-5.574.17 5.02 1.057-.034-.197-5.875 3.05-2.64-.98-.467zm4.386 2.16V48.86h1.056v-8.47l3.85 3.114.665-.822-4.514-3.653v-3.97l-.484.235z" style="line-height:normal;font-variant-ligatures:normal;font-variant-position:normal;font-variant-caps:normal;font-variant-numeric:normal;font-variant-alternates:normal;font-feature-settings:normal;text-indent:0;text-align:start;text-decoration-line:none;text-decoration-style:solid;text-decoration-color:#000;text-transform:none;text-orientation:mixed;shape-padding:0;isolation:auto;mix-blend-mode:normal" color="#000" font-weight="400" font-family="sans-serif" white-space="normal" overflow="visible"/><path fill="none" stroke-width="1.058" d="M29.874 35.297l-4.945-2.363-1.238-5.34L27.1 23.3l5.48-.017 3.43 4.275-1.205 5.347z" stroke-linecap="round" stroke-linejoin="round"/></g></svg>