<?xml version="1.0" encoding="UTF-8" standalone="no"?>
<!-- Created with Inkscape (http://www.inkscape.org/) -->

<svg
   width="149.71002mm"
   height="344.495mm"
   viewBox="0 0 149.71002 344.49499"
   version="1.1"
   id="svg2674"
   xmlns="http://www.w3.org/2000/svg"
   xmlns:svg="http://www.w3.org/2000/svg"
   xmlns:rdf="http://www.w3.org/1999/02/22-rdf-syntax-ns#"
   xmlns:cc="http://creativecommons.org/ns#"
   xmlns:dc="http://purl.org/dc/elements/1.1/">
  <defs
     id="defs2668" />
  <metadata
     id="metadata2671">
    <rdf:RDF>
      <cc:Work
         rdf:about="">
        <dc:format>image/svg+xml</dc:format>
        <dc:type
           rdf:resource="http://purl.org/dc/dcmitype/StillImage" />
      </cc:Work>
    </rdf:RDF>
  </metadata>
  <g
     id="layer1"
     transform="translate(436.97793,61.541525)">
    <g
       id="g1208">
      <g
         id="g2422">
        <g
           id="g3222">
          <g
             aria-label="podman"
             id="text164931"
             style="font-size:37.592px;line-height:22.5552px;letter-spacing:0px;word-spacing:0px;fill:#892ca0;stroke-width:0.264583px"
             transform="matrix(0.67370844,0,0,0.67370844,-164.0368,284.29134)">
            <path
               d="m -358.34296,-93.074374 c -2.93217,0 -5.48843,1.12776 -7.10488,3.345688 v -3.157728 h -3.45847 v 27.216608 h 3.60883 v -10.300208 c 1.65405,2.142744 4.13512,3.232912 6.95452,3.232912 5.82676,0 10.07466,-4.059936 10.07466,-10.187432 0,-6.089904 -4.2479,-10.14984 -10.07466,-10.14984 z m -0.30073,17.179544 c -3.79679,0 -6.69138,-2.781808 -6.69138,-7.029704 0,-4.210304 2.89459,-6.992112 6.69138,-6.992112 3.83438,0 6.72897,2.781808 6.72897,6.992112 0,4.247896 -2.89459,7.029704 -6.72897,7.029704 z"
               style="font-weight:500;font-family:Montserrat;-inkscape-font-specification:'Montserrat Medium';letter-spacing:-2.11667px"
               id="path1388" />
            <path
               d="m -335.33997,-72.737102 c 5.97712,0 10.3378,-4.247896 10.3378,-10.187432 0,-5.939536 -4.36068,-10.14984 -10.3378,-10.14984 -5.97713,0 -10.3754,4.210304 -10.3754,10.14984 0,5.939536 4.39827,10.187432 10.3754,10.187432 z m 0,-3.157728 c -3.83439,0 -6.72897,-2.781808 -6.72897,-7.029704 0,-4.247896 2.89458,-6.992112 6.72897,-6.992112 3.83438,0 6.69137,2.744216 6.69137,6.992112 0,4.247896 -2.85699,7.029704 -6.69137,7.029704 z"
               style="font-weight:500;font-family:Montserrat;-inkscape-font-specification:'Montserrat Medium';letter-spacing:-2.11667px"
               id="path1390" />
            <path
               d="m -305.4201,-89.879054 c -1.65405,-2.142744 -4.13512,-3.19532 -6.95452,-3.19532 -5.82676,0 -10.07465,4.059936 -10.07465,10.14984 0,6.089904 4.24789,10.187432 10.07465,10.187432 2.93218,0 5.48843,-1.12776 7.10489,-3.38328 v 3.157728 h 3.45846 v -27.893266 h -3.60883 z m -6.65378,13.984224 c -3.83439,0 -6.72897,-2.781808 -6.72897,-7.029704 0,-4.247896 2.89458,-6.992112 6.72897,-6.992112 3.79679,0 6.69137,2.744216 6.69137,6.992112 0,4.247896 -2.89458,7.029704 -6.69137,7.029704 z"
               style="font-weight:500;font-family:Montserrat;-inkscape-font-specification:'Montserrat Medium';letter-spacing:-2.11667px"
               id="path1392" />
            <path
               d="m -272.16273,-93.074374 c -3.38328,0 -6.16509,1.428496 -7.66877,3.684016 -1.31572,-2.481072 -3.87197,-3.684016 -6.91692,-3.684016 -3.00736,0 -5.45084,1.12776 -6.87934,3.157728 v -2.969768 h -3.45846 v 19.92376 h 3.60883 V -83.22527 c 0,-4.32308 2.36829,-6.616192 5.97713,-6.616192 3.2705,0 5.1501,1.917192 5.1501,5.82676 v 11.052048 h 3.60883 V -83.22527 c 0,-4.32308 2.3683,-6.616192 5.97713,-6.616192 3.2705,0 5.1501,1.917192 5.1501,5.82676 v 11.052048 h 3.60884 v -11.46556 c 0,-5.864352 -3.3081,-8.64616 -8.15747,-8.64616 z"
               style="font-weight:500;font-family:Montserrat;-inkscape-font-specification:'Montserrat Medium';letter-spacing:-2.11667px;fill:#808080"
               id="path1394" />
            <path
               d="m -252.21292,-93.074374 c -3.19532,0 -6.16509,0.902208 -8.23265,2.556256 l 1.50368,2.706624 c 1.54128,-1.31572 3.94716,-2.142744 6.31546,-2.142744 3.57124,0 5.33806,1.766824 5.33806,4.811776 v 0.714248 h -5.71398 c -5.93954,0 -8.0071,2.63144 -8.0071,5.82676 0,3.458464 2.857,5.864352 7.36804,5.864352 3.12013,0 5.33806,-1.052576 6.541,-2.856992 v 2.63144 h 3.42088 v -12.02944 c 0,-5.45084 -3.08255,-8.08228 -8.53339,-8.08228 z m -0.82702,17.555464 c -2.74422,0 -4.39827,-1.240536 -4.39827,-3.232912 0,-1.69164 1.01499,-3.082544 4.58623,-3.082544 h 5.56361 v 2.781808 c -0.9022,2.293112 -3.04495,3.533648 -5.75157,3.533648 z"
               style="font-weight:500;font-family:Montserrat;-inkscape-font-specification:'Montserrat Medium';letter-spacing:-2.11667px;fill:#808080"
               id="path1396" />
            <path
               d="m -228.46632,-93.074374 c -3.15773,0 -5.71398,1.165352 -7.18007,3.19532 v -3.00736 h -3.45846 v 19.92376 h 3.60883 V -83.22527 c 0,-4.32308 2.48107,-6.616192 6.31545,-6.616192 3.42088,0 5.37566,1.917192 5.37566,5.82676 v 11.052048 h 3.60883 v -11.46556 c 0,-5.864352 -3.42087,-8.64616 -8.27024,-8.64616 z"
               style="font-weight:500;font-family:Montserrat;-inkscape-font-specification:'Montserrat Medium';letter-spacing:-2.11667px;fill:#808080"
               id="path1398" />
          </g>
          <g
             id="g3147"
             transform="matrix(0.7661413,0,0,0.7661413,0.58715789,307.14584)">
            <path
               id="path10348"
               d="m -444.08179,-150.6252 c -2.77363,0.65127 -4.83282,0.84476 -7.76516,0.85419"
               style="fill:none;fill-opacity:1;stroke:#3c6eb4;stroke-width:1.37375;stroke-linejoin:round;stroke-miterlimit:4;stroke-dasharray:none;stroke-opacity:1" />
            <g
               id="g9866"
               transform="matrix(1.6130363,0,0,1.6122057,-2404.4952,261.95405)"
               style="stroke-width:1.07323">
              <path
                 id="rect9822"
                 d="m 1196.4002,-277.28841 c -6.3145,0 -11.4334,5.11824 -11.4334,11.4319 0,5.60953 0.1555,10.87478 -3.8973,11.52796 2.2201,1.74955 31.1822,1.47773 31.1822,0.0657 -3.9446,-0.40986 -3.9311,-5.05055 -4.1745,-11.47895 -0.2435,-6.42839 -5.3624,-11.54663 -11.677,-11.54663 z"
                 style="opacity:1;fill:#d7d8da;fill-opacity:1;stroke:#000000;stroke-width:0.851873;stroke-linejoin:round;stroke-miterlimit:4;stroke-dasharray:none;stroke-opacity:1" />
              <ellipse
                 transform="matrix(0.99938194,-0.03515294,0.03512104,0.99938307,0,0)"
                 style="opacity:1;fill:#f1f1f1;fill-opacity:1;stroke:none;stroke-width:0.851873;stroke-linecap:square;stroke-linejoin:miter;stroke-miterlimit:4;stroke-dasharray:none;stroke-dashoffset:6;stroke-opacity:1"
                 id="ellipse9760"
                 cx="1196.4897"
                 cy="-221.69182"
                 rx="1.2185711"
                 ry="1.2784375" />
              <ellipse
                 transform="matrix(0.99946418,-0.03273147,0.0377188,0.99928839,0,0)"
                 style="opacity:1;fill:#ffffff;fill-opacity:1;stroke:#60605b;stroke-width:0.851878;stroke-linecap:square;stroke-linejoin:miter;stroke-miterlimit:4;stroke-dasharray:none;stroke-dashoffset:6;stroke-opacity:1"
                 id="ellipse9762"
                 cx="1205.7982"
                 cy="-224.76184"
                 rx="3.8366725"
                 ry="3.3919933" />
              <path
                 style="fill:none;fill-opacity:1;stroke:#000000;stroke-width:0.567915;stroke-linecap:square;stroke-linejoin:miter;stroke-miterlimit:4;stroke-dasharray:none;stroke-dashoffset:0;stroke-opacity:1"
                 d="m 1203.9748,-270.3367 c -0.3302,-0.40944 -0.849,-0.66007 -1.375,-0.66415 -0.4959,-0.004 -0.9897,0.21029 -1.3258,0.57498"
                 id="path9764" />
              <g
                 id="g9774"
                 style="stroke-width:0.820075;stroke-miterlimit:4;stroke-dasharray:none"
                 transform="matrix(0.69366503,-0.00293008,0.00289825,0.69135666,529.16872,-257.19815)">
                <g
                   style="stroke-width:0.820075;stroke-miterlimit:4;stroke-dasharray:none"
                   id="g9772"
                   transform="translate(0,-0.52916667)">
                  <path
                     style="fill:none;fill-rule:evenodd;stroke:#000000;stroke-width:0.820075;stroke-linecap:butt;stroke-linejoin:miter;stroke-miterlimit:4;stroke-dasharray:none;stroke-opacity:1"
                     d="m 962.30591,-5.7829972 0.0993,1.9843749 c 0,0 1.58751,1.4221355 2.51355,-0.033073 0,0 -0.0993,-0.8268214 -0.16541,-1.0914047"
                     id="path9768" />
                  <path
                     id="path9770"
                     d="m 962.28751,-5.7829972 -0.0993,1.9843749 c 0,0 -1.58751,1.4221355 -2.51355,-0.033073 0,0 0.0993,-0.8268214 0.16541,-1.0914047"
                     style="fill:none;fill-rule:evenodd;stroke:#000000;stroke-width:0.820075;stroke-linecap:butt;stroke-linejoin:miter;stroke-miterlimit:4;stroke-dasharray:none;stroke-opacity:1" />
                </g>
              </g>
              <path
                 id="path9776"
                 style="fill:#808080;fill-opacity:1;stroke:#000000;stroke-width:0.567915;stroke-linecap:square;stroke-linejoin:miter;stroke-miterlimit:4;stroke-dasharray:none;stroke-dashoffset:0;stroke-opacity:1"
                 d="m 1197.9362,-265.07184 c -0.1012,-0.25799 -0.1029,-0.77483 -0.4026,-0.77357 -0.2995,0.002 -0.5774,-0.1914 -0.872,-0.19011 -0.2946,0.002 -0.571,0.19636 -0.8707,0.19765 -0.2993,0.002 -0.2975,0.51817 -0.396,0.77704 -0.1011,0.25897 1.275,1.09288 1.275,1.09288 0,0 1.3673,-0.84575 1.2663,-1.10389 z" />
              <path
                 id="path9778"
                 d="m 1188.9919,-270.28459 c 0.3005,-0.43161 0.8005,-0.71808 1.3248,-0.75912 0.4944,-0.0387 1.002,0.14023 1.3629,0.48043"
                 style="fill:none;fill-opacity:1;stroke:#000000;stroke-width:0.567915;stroke-linecap:square;stroke-linejoin:miter;stroke-miterlimit:4;stroke-dasharray:none;stroke-dashoffset:0;stroke-opacity:1" />
              <g
                 transform="translate(-0.1322934,-148.99351)"
                 id="g9786"
                 style="stroke-width:1.07323">
                <ellipse
                   ry="1.9430941"
                   rx="1.8695227"
                   cy="-75.635956"
                   cx="-1206.3459"
                   id="ellipse9782"
                   style="fill:#000000;fill-opacity:1;stroke:#892ca0;stroke-width:0.851873;stroke-linecap:square;stroke-linejoin:miter;stroke-miterlimit:4;stroke-dasharray:none;stroke-dashoffset:0;stroke-opacity:1"
                   transform="matrix(-0.99938215,0.03514721,0.03512674,0.99938287,0,0)" />
                <ellipse
                   style="fill:#ffffff;fill-opacity:1;stroke:none;stroke-width:0.851873;stroke-linecap:square;stroke-linejoin:miter;stroke-miterlimit:4;stroke-dasharray:none;stroke-dashoffset:0;stroke-opacity:1"
                   id="ellipse9784"
                   cx="1206.9153"
                   cy="-76.182663"
                   rx="0.91933995"
                   ry="0.96816051"
                   transform="matrix(0.99938215,-0.03514721,0.03512674,0.99938287,0,0)" />
              </g>
              <g
                 id="g9796"
                 style="stroke:#60605b;stroke-width:0.654754;stroke-miterlimit:4;stroke-dasharray:none"
                 transform="matrix(-0.86763199,-0.04368486,-0.04400126,0.8648962,2029.5877,-215.68906)">
                <g
                   style="stroke-width:0.654754"
                   id="g9794">
                  <path
                     id="path9788"
                     d="m 956.32834,-6.2874931 c -2.17461,0.00852 -3.90258,0.727992 -5.25392,1.62519"
                     style="fill:none;fill-rule:evenodd;stroke:#60605b;stroke-width:0.654754;stroke-linecap:butt;stroke-linejoin:miter;stroke-miterlimit:4;stroke-dasharray:none;stroke-opacity:1" />
                  <path
                     id="path9790"
                     d="m 957.00529,-5.3889116 c -2.45021,0.3102076 -3.99116,1.6666651 -5.21618,2.999397"
                     style="fill:none;fill-rule:evenodd;stroke:#60605b;stroke-width:0.654754;stroke-linecap:butt;stroke-linejoin:miter;stroke-miterlimit:4;stroke-dasharray:none;stroke-opacity:1" />
                  <path
                     id="path9792"
                     d="m 957.14608,-4.4502461 c -2.0377,0.8062397 -3.03766,2.4684328 -3.7999,4.05763317"
                     style="fill:none;fill-rule:evenodd;stroke:#60605b;stroke-width:0.654754;stroke-linecap:butt;stroke-linejoin:miter;stroke-miterlimit:4;stroke-dasharray:none;stroke-opacity:1" />
                </g>
              </g>
              <g
                 transform="matrix(0.86340059,-0.09610492,0.09623303,0.86064955,368.1354,-165.50024)"
                 style="stroke:#60605b;stroke-width:0.654754;stroke-miterlimit:4;stroke-dasharray:none"
                 id="g9806">
                <g
                   id="g9804"
                   style="stroke-width:0.654754">
                  <path
                     style="fill:none;fill-rule:evenodd;stroke:#60605b;stroke-width:0.654754;stroke-linecap:butt;stroke-linejoin:miter;stroke-miterlimit:4;stroke-dasharray:none;stroke-opacity:1"
                     d="m 956.32834,-6.2874931 c -2.17461,0.00852 -3.90258,0.727992 -5.25392,1.62519"
                     id="path9798" />
                  <path
                     style="fill:none;fill-rule:evenodd;stroke:#60605b;stroke-width:0.654754;stroke-linecap:butt;stroke-linejoin:miter;stroke-miterlimit:4;stroke-dasharray:none;stroke-opacity:1"
                     d="m 957.00529,-5.3889116 c -2.45021,0.3102076 -3.99116,1.6666651 -5.21618,2.999397"
                     id="path9800" />
                  <path
                     style="fill:none;fill-rule:evenodd;stroke:#60605b;stroke-width:0.654754;stroke-linecap:butt;stroke-linejoin:miter;stroke-miterlimit:4;stroke-dasharray:none;stroke-opacity:1"
                     d="m 956.99206,-4.4197862 c -2.0377,0.8062397 -3.03766,2.4684328 -3.7999,4.05763312"
                     id="path9802" />
                </g>
              </g>
              <g
                 transform="translate(-0.1322934,-149.16808)"
                 id="g9812"
                 style="stroke-width:1.07323">
                <ellipse
                   transform="matrix(0.99967764,-0.0253894,0.02538424,0.99967777,0,0)"
                   style="fill:#000000;fill-opacity:1;stroke:#892ca0;stroke-width:0.851873;stroke-linecap:square;stroke-linejoin:miter;stroke-miterlimit:4;stroke-dasharray:none;stroke-dashoffset:0;stroke-opacity:1"
                   id="ellipse9808"
                   cx="1193.2991"
                   cy="-87.545464"
                   rx="1.8695223"
                   ry="1.9430944" />
                <ellipse
                   transform="matrix(-0.99967764,0.0253894,0.02538424,0.99967777,0,0)"
                   ry="0.96816063"
                   rx="0.91933978"
                   cy="-88.092163"
                   cx="-1192.7297"
                   id="ellipse9810"
                   style="fill:#ffffff;fill-opacity:1;stroke:none;stroke-width:0.851873;stroke-linecap:square;stroke-linejoin:miter;stroke-miterlimit:4;stroke-dasharray:none;stroke-dashoffset:0;stroke-opacity:1" />
              </g>
              <ellipse
                 ry="1.2784375"
                 rx="1.2185711"
                 cy="-221.06982"
                 cx="1214.1729"
                 id="ellipse9814"
                 style="opacity:1;fill:#f1f1f1;fill-opacity:1;stroke:none;stroke-width:0.851873;stroke-linecap:square;stroke-linejoin:miter;stroke-miterlimit:4;stroke-dasharray:none;stroke-dashoffset:6;stroke-opacity:1"
                 transform="matrix(0.99938194,-0.03515294,0.03512104,0.99938307,0,0)" />
              <path
                 id="path9833"
                 d="m 1196.6606,-258.19566 a 8.2351559,7.2429689 0 0 0 -7.6956,4.68912 c 4.7591,0.2089 10.6723,0.19768 15.4021,0.0114 a 8.2351559,7.2429689 0 0 0 -7.7065,-4.7005 z"
                 style="opacity:1;fill:#f1f1f1;fill-opacity:1;stroke:none;stroke-width:0.851873;stroke-linejoin:round;stroke-miterlimit:4;stroke-dasharray:none;stroke-opacity:1" />
            </g>
            <path
               id="path10202"
               d="m -441.19238,-147.76894 c -6.18191,2.47555 -19.23662,1.9851 -31.5371,2.03356 -12.30048,0.0485 -26.99296,-0.47221 -29.4343,-2.93479"
               style="fill:none;fill-opacity:1;stroke:#3c6eb4;stroke-width:1.37375;stroke-linejoin:round;stroke-miterlimit:4;stroke-dasharray:none;stroke-opacity:1" />
            <path
               id="path9868"
               d="m -476.82225,-137.27468 c 0,1.74289 0,3.45904 -0.0294,5.09968 10.91678,2.00336 21.81435,2.04244 32.05407,0.0313 -0.0727,-1.55033 -0.12288,-3.20973 -0.18415,-4.96015 -0.33558,-9.58012 -7.38786,-16.29178 -16.08778,-16.29179 -8.70009,-2e-5 -15.75271,6.7118 -15.75271,16.12094 z"
               style="fill:#d7d8da;fill-opacity:1;stroke:#000000;stroke-width:1.37375;stroke-linejoin:round;stroke-miterlimit:4;stroke-dasharray:none;stroke-opacity:1" />
            <ellipse
               transform="matrix(0.99938258,-0.03513486,0.03513911,0.99938243,0,0)"
               style="fill:#f1f1f1;fill-opacity:1;stroke:none;stroke-width:1.37375;stroke-linecap:square;stroke-linejoin:miter;stroke-miterlimit:4;stroke-dasharray:none;stroke-dashoffset:6;stroke-opacity:1"
               id="ellipse9870"
               cx="-467.93243"
               cy="-153.02394"
               rx="1.9655981"
               ry="2.0611057" />
            <path
               style="fill:none;fill-opacity:1;stroke:#000000;stroke-width:0.915833;stroke-linecap:square;stroke-linejoin:miter;stroke-miterlimit:4;stroke-dasharray:none;stroke-dashoffset:0;stroke-opacity:1"
               d="m -450.7952,-145.80336 c -0.43792,-0.54266 -1.12583,-0.8748 -1.82313,-0.88024 -0.65755,-0.005 -1.31224,0.27864 -1.75805,0.76203"
               id="path9874" />
            <path
               id="path9886"
               d="m -470.66267,-145.73375 c 0.39874,-0.57207 1.06164,-0.95168 1.75684,-1.00606 0.65557,-0.0513 1.32856,0.18584 1.8072,0.63674"
               style="fill:none;fill-opacity:1;stroke:#000000;stroke-width:0.915833;stroke-linecap:square;stroke-linejoin:miter;stroke-miterlimit:4;stroke-dasharray:none;stroke-dashoffset:0;stroke-opacity:1" />
            <ellipse
               transform="matrix(-0.99938278,0.03512913,0.03514482,0.99938223,0,0)"
               style="fill:#000000;fill-opacity:1;stroke:#892ca0;stroke-width:1.37375;stroke-linecap:square;stroke-linejoin:miter;stroke-miterlimit:4;stroke-dasharray:none;stroke-dashoffset:0;stroke-opacity:1"
               id="ellipse9888"
               cx="447.0918"
               cy="-157.10309"
               rx="2.4790154"
               ry="2.5752487" />
            <ellipse
               transform="matrix(0.99938278,-0.03512913,0.03514482,0.99938223,0,0)"
               ry="1.2831359"
               rx="1.2190586"
               cy="-157.82765"
               cx="-446.33694"
               id="ellipse9890"
               style="fill:#ffffff;fill-opacity:1;stroke:none;stroke-width:1.37375;stroke-linecap:square;stroke-linejoin:miter;stroke-miterlimit:4;stroke-dasharray:none;stroke-dashoffset:0;stroke-opacity:1" />
            <path
               d="m -441.8137,-132.98859 -2.87591,0.82923 c -10.34738,2.0268 -21.24494,1.98772 -32.16172,-0.0156 l -4.37107,-0.81359"
               style="fill:none;fill-opacity:1;stroke:#3c6eb4;stroke-width:1.37375;stroke-linejoin:round;stroke-miterlimit:4;stroke-dasharray:none;stroke-opacity:1"
               id="path10111" />
            <g
               id="g9900"
               style="stroke:#60605b;stroke-width:0.990478;stroke-miterlimit:4;stroke-dasharray:none"
               transform="matrix(-0.93494181,-0.0460695,-0.04741483,0.91210891,437.99142,-86.849912)">
              <path
                 id="path9898"
                 style="fill:none;fill-rule:evenodd;stroke:#60605b;stroke-width:0.990478;stroke-linecap:butt;stroke-linejoin:miter;stroke-miterlimit:4;stroke-dasharray:none;stroke-opacity:1"
                 d="m 957.14608,-4.4502461 c -2.0377,0.8062397 -3.03766,2.4684328 -3.7999,4.05763317 m 3.65911,-4.99629867 c -2.45021,0.3102076 -3.99116,1.6666651 -5.21618,2.999397 m 4.53923,-3.8979785 c -2.17461,0.00852 -3.90258,0.727992 -5.25392,1.62519" />
            </g>
            <g
               style="stroke:#60605b;stroke-width:0.990478;stroke-miterlimit:4;stroke-dasharray:none"
               id="g9910"
               transform="matrix(0.93038214,-0.10135107,0.10369867,0.90763043,-1354.1858,-33.902671)">
              <path
                 id="path9904"
                 d="m 956.32834,-6.2874931 c -2.17461,0.00852 -3.90258,0.727992 -5.25392,1.62519"
                 style="fill:none;fill-rule:evenodd;stroke:#60605b;stroke-width:0.990478;stroke-linecap:butt;stroke-linejoin:miter;stroke-miterlimit:4;stroke-dasharray:none;stroke-opacity:1" />
              <path
                 id="path9906"
                 d="m 957.00529,-5.3889116 c -2.45021,0.3102076 -3.99116,1.6666651 -5.21618,2.999397"
                 style="fill:none;fill-rule:evenodd;stroke:#60605b;stroke-width:0.990478;stroke-linecap:butt;stroke-linejoin:miter;stroke-miterlimit:4;stroke-dasharray:none;stroke-opacity:1" />
              <path
                 id="path9908"
                 d="m 956.99206,-4.4197862 c -2.0377,0.8062397 -3.03766,2.4684328 -3.7999,4.05763312"
                 style="fill:none;fill-rule:evenodd;stroke:#60605b;stroke-width:0.990478;stroke-linecap:butt;stroke-linejoin:miter;stroke-miterlimit:4;stroke-dasharray:none;stroke-opacity:1" />
            </g>
            <ellipse
               ry="2.575248"
               rx="2.4790156"
               cy="-153.14551"
               cx="-464.84341"
               id="ellipse9914"
               style="fill:#000000;fill-opacity:1;stroke:#892ca0;stroke-width:1.37375;stroke-linecap:square;stroke-linejoin:miter;stroke-miterlimit:4;stroke-dasharray:none;stroke-dashoffset:0;stroke-opacity:1"
               transform="matrix(0.99967797,-0.02537634,0.02539731,0.99967744,0,0)" />
            <ellipse
               style="fill:#ffffff;fill-opacity:1;stroke:none;stroke-width:1.37375;stroke-linecap:square;stroke-linejoin:miter;stroke-miterlimit:4;stroke-dasharray:none;stroke-dashoffset:0;stroke-opacity:1"
               id="ellipse9916"
               cx="465.59827"
               cy="-153.87009"
               rx="1.2190588"
               ry="1.2831357"
               transform="matrix(-0.99967797,0.02537634,0.02539731,0.99967744,0,0)" />
            <ellipse
               ry="2.0611057"
               rx="1.9655981"
               cy="-152.13847"
               cx="-442.74612"
               id="ellipse9920"
               style="fill:#f1f1f1;fill-opacity:1;stroke:none;stroke-width:1.37375;stroke-linecap:square;stroke-linejoin:miter;stroke-miterlimit:4;stroke-dasharray:none;stroke-dashoffset:6;stroke-opacity:1"
               transform="matrix(0.99938258,-0.03513486,0.03513911,0.99938243,0,0)" />
            <ellipse
               transform="matrix(0.99941617,-0.03416617,0.0361353,0.99934691,0,0)"
               style="fill:#ffffff;fill-opacity:1;stroke:#60605b;stroke-width:1.37375;stroke-linecap:square;stroke-linejoin:miter;stroke-miterlimit:4;stroke-dasharray:none;stroke-dashoffset:6;stroke-opacity:1"
               id="ellipse9872"
               cx="-455.26074"
               cy="-151.74422"
               rx="5.1658988"
               ry="4.7670693" />
            <path
               id="path9884"
               style="fill:#808080;fill-opacity:1;stroke:#000000;stroke-width:0.915833;stroke-linecap:square;stroke-linejoin:miter;stroke-miterlimit:4;stroke-dasharray:none;stroke-dashoffset:0;stroke-opacity:1"
               d="m -458.44336,-137.5779 c -0.16269,-0.41594 -0.17706,-1.14424 -0.64937,-1.24717 l -1.40654,-0.30649 -1.40447,0.31866 c -0.47092,0.10696 -0.47992,0.83539 -0.6388,1.25275 -0.16269,0.4175 2.0566,1.76195 2.0566,1.76195 0,0 2.20543,-1.36354 2.04258,-1.7797 z" />
            <path
               id="path9966"
               d="m -460.7362,-135.31601 c -0.12115,0.19235 -0.30132,0.34666 -0.50987,0.43825 -0.22292,0.0973 -0.47473,0.12271 -0.71547,0.0857 -0.16961,-0.0261 -0.33455,-0.086 -0.48564,-0.16909 0,0.009 0,0.0173 0,0.026 0,1.07482 0.87141,1.94615 1.94618,1.94615 1.07477,0 1.946,-0.87133 1.946,-1.94615 1.8e-4,-0.009 1.8e-4,-0.0138 0,-0.0223 -0.15057,0.0813 -0.3117,0.13984 -0.48009,0.16545 -0.24074,0.0367 -0.49274,0.0121 -0.71565,-0.0857 -0.20838,-0.0916 -0.38802,-0.2459 -0.50969,-0.43825 -0.31828,-0.78325 -0.25961,-0.57731 -0.47577,0 z"
               style="fill:#ff8080;fill-opacity:1;stroke:#000000;stroke-width:0.915833;stroke-linejoin:round;stroke-miterlimit:4;stroke-dasharray:none;stroke-opacity:1" />
            <path
               id="path10198"
               style="fill:none;fill-opacity:1;stroke:#3c6eb4;stroke-width:1.37375;stroke-linejoin:round;stroke-miterlimit:4;stroke-dasharray:none;stroke-opacity:1"
               d="m -458.77064,-127.6947 c -12.41384,0.25266 -18.71067,-0.70982 -29.09162,-3.23324" />
            <path
               d="m -455.9013,-124.32208 c -5.5554,0.61207 -10.15838,0.72756 -15.08432,0.0139"
               style="fill:none;fill-opacity:1;stroke:#3c6eb4;stroke-width:1.37375;stroke-linejoin:round;stroke-miterlimit:4;stroke-dasharray:none;stroke-opacity:1"
               id="path10200" />
            <path
               style="fill:#d7d8da;fill-opacity:1;stroke:#000000;stroke-width:1.37375;stroke-linejoin:round;stroke-miterlimit:4;stroke-dasharray:none;stroke-opacity:1"
               d="m -503.61272,-141.79238 c 0,1.40777 0,2.794 -0.0225,4.11918 7.87159,1.6182 15.72952,1.64977 23.11289,0.0253 -0.0502,-1.25225 -0.09,-2.59261 -0.13327,-4.0065 -0.24195,-7.73821 -5.62912,-11.2833 -11.59071,-11.2833 -5.96159,0 -11.36641,3.54523 -11.36641,11.14535 z"
               id="path10296" />
            <path
               id="path10298"
               d="m -485.20407,-147.92322 c -0.31851,-0.37308 -0.80436,-0.59755 -1.29491,-0.59827 -0.4666,-6.8e-4 -0.93008,0.20012 -1.24871,0.54099"
               style="fill:none;fill-opacity:1;stroke:#000000;stroke-width:0.915833;stroke-linecap:square;stroke-linejoin:miter;stroke-miterlimit:4;stroke-dasharray:none;stroke-dashoffset:0;stroke-opacity:1" />
            <path
               style="fill:none;fill-opacity:1;stroke:#000000;stroke-width:0.915833;stroke-linecap:square;stroke-linejoin:miter;stroke-miterlimit:4;stroke-dasharray:none;stroke-dashoffset:0;stroke-opacity:1"
               d="m -499.37838,-147.88935 c 0.29596,-0.38442 0.76349,-0.63142 1.24784,-0.65924 0.46944,-0.027 0.94708,0.15177 1.28349,0.48029"
               id="path10302" />
            <ellipse
               ry="2.2342417"
               rx="2.1739042"
               cy="-160.29672"
               cx="480.3786"
               id="ellipse10306"
               style="fill:#000000;fill-opacity:1;stroke:#892ca0;stroke-width:1.37375;stroke-linecap:square;stroke-linejoin:miter;stroke-miterlimit:4;stroke-dasharray:none;stroke-dashoffset:0;stroke-opacity:1"
               transform="matrix(-0.99939588,0.03475453,0.03552362,0.99936884,0,0)" />
            <ellipse
               style="fill:#ffffff;fill-opacity:1;stroke:none;stroke-width:1.37375;stroke-linecap:square;stroke-linejoin:miter;stroke-miterlimit:4;stroke-dasharray:none;stroke-dashoffset:0;stroke-opacity:1"
               id="ellipse10308"
               cx="-479.71671"
               cy="-160.92535"
               rx="1.0690199"
               ry="1.1132268"
               transform="matrix(0.99939588,-0.03475453,0.03552362,0.99936884,0,0)" />
            <ellipse
               transform="matrix(0.99968481,-0.02510557,0.02567121,0.99967044,0,0)"
               style="fill:#000000;fill-opacity:1;stroke:#892ca0;stroke-width:1.37375;stroke-linecap:square;stroke-linejoin:miter;stroke-miterlimit:4;stroke-dasharray:none;stroke-dashoffset:0;stroke-opacity:1"
               id="ellipse10310"
               cx="-494.4819"
               cy="-155.9659"
               rx="2.1739182"
               ry="2.2342269" />
            <path
               style="fill:#ffffff;fill-opacity:1;stroke:#60605b;stroke-width:1.37375;stroke-linecap:square;stroke-linejoin:miter;stroke-miterlimit:4;stroke-dasharray:none;stroke-dashoffset:6;stroke-opacity:1"
               d="m -492.31258,-142.58811 c -2.04693,0.0696 -3.65101,1.65127 -3.58282,3.53275 0.0238,0.63822 0.24237,1.94483 0.63055,2.47322 2.06007,0.11123 4.10755,0.12351 6.10045,0.0438 0.46757,-0.60775 0.70688,-2.02662 0.68151,-2.76926 -0.0683,-1.8814 -1.78285,-3.35012 -3.82969,-3.28054 z"
               id="ellipse10326" />
            <ellipse
               transform="matrix(-0.99968481,0.02510557,0.02567121,0.99967044,0,0)"
               ry="1.1132195"
               rx="1.0690267"
               cy="-156.59453"
               cx="495.1438"
               id="ellipse10312"
               style="fill:#ffffff;fill-opacity:1;stroke:none;stroke-width:1.37375;stroke-linecap:square;stroke-linejoin:miter;stroke-miterlimit:4;stroke-dasharray:none;stroke-dashoffset:0;stroke-opacity:1" />
            <path
               d="m -490.68885,-139.25523 c -0.11942,-0.30312 -0.13153,-0.83386 -0.47992,-0.90887 l -1.03946,-0.22336 -1.03808,0.23222 c -0.34805,0.0779 -0.35462,0.6088 -0.47214,0.91293 -0.11942,0.30426 1.52008,1.28402 1.52008,1.28402 0,0 1.62998,-0.99367 1.50952,-1.29694 z"
               style="fill:#808080;fill-opacity:1;stroke:#000000;stroke-width:0.915833;stroke-linecap:square;stroke-linejoin:miter;stroke-miterlimit:4;stroke-dasharray:none;stroke-dashoffset:0;stroke-opacity:1"
               id="path10328" />
            <path
               style="fill:none;fill-opacity:1;stroke:#3c6eb4;stroke-width:1.37375;stroke-linejoin:round;stroke-miterlimit:4;stroke-dasharray:none;stroke-opacity:1"
               d="m -505.35243,-134.46781 c 4.78315,1.26171 8.33422,1.63659 13.39134,1.65487"
               id="path10340" />
            <ellipse
               ry="1.6968153"
               rx="1.6181881"
               cy="-155.41756"
               cx="-479.56949"
               id="ellipse10355"
               style="fill:#f1f1f1;fill-opacity:1;stroke:none;stroke-width:1.37375;stroke-linecap:square;stroke-linejoin:miter;stroke-miterlimit:4;stroke-dasharray:none;stroke-dashoffset:6;stroke-opacity:1"
               transform="matrix(0.99938258,-0.03513486,0.03513911,0.99938243,0,0)" />
            <ellipse
               transform="matrix(0.99938258,-0.03513486,0.03513911,0.99938243,0,0)"
               style="fill:#f1f1f1;fill-opacity:1;stroke:none;stroke-width:1.37375;stroke-linecap:square;stroke-linejoin:miter;stroke-miterlimit:4;stroke-dasharray:none;stroke-dashoffset:6;stroke-opacity:1"
               id="ellipse10357"
               cx="-494.2135"
               cy="-155.93234"
               rx="1.6181881"
               ry="1.6968153" />
            <path
               id="path10338"
               d="m -506.66483,-138.36006 c 9.56648,2.52339 20.50611,2.33448 28.38463,0.17319"
               style="fill:none;fill-opacity:1;stroke:#3c6eb4;stroke-width:1.37375;stroke-linejoin:round;stroke-miterlimit:4;stroke-dasharray:none;stroke-opacity:1" />
          </g>
        </g>
      </g>
    </g>
  </g>
</svg>
